<mxfile host="app.diagrams.net" agent="Mozilla/5.0 (Windows NT 10.0; Win64; x64) AppleWebKit/537.36 (KHTML, like Gecko) Chrome/138.0.0.0 Safari/537.36" version="28.0.6">
  <diagram name="Page-1" id="ugTnHmCjTcMLFi35S_T8">
    <mxGraphModel dx="1585" dy="1091" grid="1" gridSize="10" guides="1" tooltips="1" connect="1" arrows="1" fold="1" page="1" pageScale="1" pageWidth="850" pageHeight="1100" math="0" shadow="0">
      <root>
        <mxCell id="0" />
        <mxCell id="1" parent="0" />
        <mxCell id="f8hcoBLO5ySRNdk-i0lg-3" value="" style="edgeStyle=orthogonalEdgeStyle;rounded=0;orthogonalLoop=1;jettySize=auto;html=1;" parent="1" source="Kg_sOJWb3HzbP19iZcao-2" target="Kg_sOJWb3HzbP19iZcao-4" edge="1">
          <mxGeometry relative="1" as="geometry" />
        </mxCell>
        <mxCell id="Kg_sOJWb3HzbP19iZcao-1" value="Start" style="ellipse;whiteSpace=wrap;html=1;fontSize=12;" parent="1" vertex="1">
          <mxGeometry x="412.5" y="74" width="85" height="30" as="geometry" />
        </mxCell>
        <mxCell id="Kg_sOJWb3HzbP19iZcao-5" value="" style="edgeStyle=orthogonalEdgeStyle;rounded=0;orthogonalLoop=1;jettySize=auto;html=1;fontSize=12;" parent="1" source="Kg_sOJWb3HzbP19iZcao-2" target="Kg_sOJWb3HzbP19iZcao-4" edge="1">
          <mxGeometry relative="1" as="geometry" />
        </mxCell>
        <mxCell id="Kg_sOJWb3HzbP19iZcao-20" value="" style="edgeStyle=orthogonalEdgeStyle;rounded=0;orthogonalLoop=1;jettySize=auto;html=1;" parent="1" source="Kg_sOJWb3HzbP19iZcao-4" target="Kg_sOJWb3HzbP19iZcao-19" edge="1">
          <mxGeometry relative="1" as="geometry" />
        </mxCell>
        <mxCell id="Kg_sOJWb3HzbP19iZcao-22" value="" style="edgeStyle=orthogonalEdgeStyle;rounded=0;orthogonalLoop=1;jettySize=auto;html=1;" parent="1" source="Kg_sOJWb3HzbP19iZcao-4" target="Kg_sOJWb3HzbP19iZcao-21" edge="1">
          <mxGeometry relative="1" as="geometry" />
        </mxCell>
        <mxCell id="33GwBaCSwXvwDN534ODD-47" value="" style="edgeStyle=orthogonalEdgeStyle;rounded=0;orthogonalLoop=1;jettySize=auto;html=1;" edge="1" parent="1" source="Kg_sOJWb3HzbP19iZcao-4" target="Kg_sOJWb3HzbP19iZcao-16">
          <mxGeometry relative="1" as="geometry" />
        </mxCell>
        <mxCell id="Kg_sOJWb3HzbP19iZcao-4" value="user selectoin" style="rhombus;whiteSpace=wrap;html=1;fontSize=12;" parent="1" vertex="1">
          <mxGeometry x="412.5" y="214.75" width="85" height="88.5" as="geometry" />
        </mxCell>
        <mxCell id="Kg_sOJWb3HzbP19iZcao-16" value="end" style="ellipse;whiteSpace=wrap;html=1;fontSize=12;" parent="1" vertex="1">
          <mxGeometry x="410" y="334" width="90" height="30" as="geometry" />
        </mxCell>
        <mxCell id="f8hcoBLO5ySRNdk-i0lg-5" value="" style="edgeStyle=orthogonalEdgeStyle;rounded=0;orthogonalLoop=1;jettySize=auto;html=1;" parent="1" source="Kg_sOJWb3HzbP19iZcao-19" target="f8hcoBLO5ySRNdk-i0lg-4" edge="1">
          <mxGeometry relative="1" as="geometry" />
        </mxCell>
        <mxCell id="33GwBaCSwXvwDN534ODD-43" value="" style="edgeStyle=orthogonalEdgeStyle;rounded=0;orthogonalLoop=1;jettySize=auto;html=1;" edge="1" parent="1" source="Kg_sOJWb3HzbP19iZcao-19" target="33GwBaCSwXvwDN534ODD-42">
          <mxGeometry relative="1" as="geometry" />
        </mxCell>
        <mxCell id="Kg_sOJWb3HzbP19iZcao-19" value="Start (Run Cipher Interface)" style="whiteSpace=wrap;html=1;" parent="1" vertex="1">
          <mxGeometry x="299" y="234" width="70" height="50" as="geometry" />
        </mxCell>
        <mxCell id="33GwBaCSwXvwDN534ODD-45" value="" style="edgeStyle=orthogonalEdgeStyle;rounded=0;orthogonalLoop=1;jettySize=auto;html=1;" edge="1" parent="1" source="Kg_sOJWb3HzbP19iZcao-21" target="33GwBaCSwXvwDN534ODD-44">
          <mxGeometry relative="1" as="geometry" />
        </mxCell>
        <mxCell id="33GwBaCSwXvwDN534ODD-50" value="" style="edgeStyle=orthogonalEdgeStyle;rounded=0;orthogonalLoop=1;jettySize=auto;html=1;" edge="1" parent="1" source="Kg_sOJWb3HzbP19iZcao-21" target="33GwBaCSwXvwDN534ODD-49">
          <mxGeometry relative="1" as="geometry" />
        </mxCell>
        <mxCell id="Kg_sOJWb3HzbP19iZcao-21" value="History (show history screen)" style="whiteSpace=wrap;html=1;" parent="1" vertex="1">
          <mxGeometry x="530" y="239" width="90" height="40" as="geometry" />
        </mxCell>
        <mxCell id="f8hcoBLO5ySRNdk-i0lg-9" value="" style="edgeStyle=orthogonalEdgeStyle;rounded=0;orthogonalLoop=1;jettySize=auto;html=1;" parent="1" source="f8hcoBLO5ySRNdk-i0lg-4" target="f8hcoBLO5ySRNdk-i0lg-8" edge="1">
          <mxGeometry relative="1" as="geometry" />
        </mxCell>
        <mxCell id="f8hcoBLO5ySRNdk-i0lg-4" value="Open file dialog" style="rounded=1;whiteSpace=wrap;html=1;" parent="1" vertex="1">
          <mxGeometry x="167.5" y="239" width="85" height="40" as="geometry" />
        </mxCell>
        <mxCell id="33GwBaCSwXvwDN534ODD-26" value="" style="edgeStyle=orthogonalEdgeStyle;rounded=0;orthogonalLoop=1;jettySize=auto;html=1;" edge="1" parent="1" source="f8hcoBLO5ySRNdk-i0lg-8" target="f8hcoBLO5ySRNdk-i0lg-15">
          <mxGeometry relative="1" as="geometry" />
        </mxCell>
        <mxCell id="f8hcoBLO5ySRNdk-i0lg-8" value="file selection?" style="rhombus;whiteSpace=wrap;html=1;" parent="1" vertex="1">
          <mxGeometry x="170" y="304" width="80" height="80" as="geometry" />
        </mxCell>
        <mxCell id="f8hcoBLO5ySRNdk-i0lg-16" value="" style="edgeStyle=orthogonalEdgeStyle;rounded=0;orthogonalLoop=1;jettySize=auto;html=1;" parent="1" source="f8hcoBLO5ySRNdk-i0lg-12" target="f8hcoBLO5ySRNdk-i0lg-15" edge="1">
          <mxGeometry relative="1" as="geometry" />
        </mxCell>
        <mxCell id="f8hcoBLO5ySRNdk-i0lg-12" value="display operation choice" style="rounded=0;whiteSpace=wrap;html=1;" parent="1" vertex="1">
          <mxGeometry x="152.5" y="424" width="105" height="40" as="geometry" />
        </mxCell>
        <mxCell id="f8hcoBLO5ySRNdk-i0lg-15" value="User Choice" style="rhombus;whiteSpace=wrap;html=1;rounded=0;" parent="1" vertex="1">
          <mxGeometry x="167.5" y="474" width="75" height="70" as="geometry" />
        </mxCell>
        <mxCell id="f8hcoBLO5ySRNdk-i0lg-17" value="Encrypt &#39;e&#39;" style="whiteSpace=wrap;html=1;rounded=0;" parent="1" vertex="1">
          <mxGeometry x="120" y="564" width="65" height="25" as="geometry" />
        </mxCell>
        <mxCell id="f8hcoBLO5ySRNdk-i0lg-19" value="Decrypt &#39;d&#39;" style="whiteSpace=wrap;html=1;rounded=0;" parent="1" vertex="1">
          <mxGeometry x="220" y="566.5" width="60" height="20" as="geometry" />
        </mxCell>
        <mxCell id="f8hcoBLO5ySRNdk-i0lg-31" value="" style="edgeStyle=orthogonalEdgeStyle;rounded=0;orthogonalLoop=1;jettySize=auto;html=1;" parent="1" source="f8hcoBLO5ySRNdk-i0lg-21" target="f8hcoBLO5ySRNdk-i0lg-30" edge="1">
          <mxGeometry relative="1" as="geometry" />
        </mxCell>
        <mxCell id="f8hcoBLO5ySRNdk-i0lg-21" value="Load Animation" style="whiteSpace=wrap;html=1;rounded=0;" parent="1" vertex="1">
          <mxGeometry x="86.25" y="654" width="62.5" height="40" as="geometry" />
        </mxCell>
        <mxCell id="f8hcoBLO5ySRNdk-i0lg-26" value="" style="endArrow=classic;html=1;rounded=0;entryX=0.626;entryY=-0.071;entryDx=0;entryDy=0;entryPerimeter=0;exitX=1;exitY=1;exitDx=0;exitDy=0;" parent="1" source="f8hcoBLO5ySRNdk-i0lg-15" target="f8hcoBLO5ySRNdk-i0lg-19" edge="1">
          <mxGeometry width="50" height="50" relative="1" as="geometry">
            <mxPoint x="280" y="544" as="sourcePoint" />
            <mxPoint x="330" y="494" as="targetPoint" />
          </mxGeometry>
        </mxCell>
        <mxCell id="f8hcoBLO5ySRNdk-i0lg-27" value="" style="endArrow=classic;html=1;rounded=0;entryX=0.5;entryY=0;entryDx=0;entryDy=0;" parent="1" source="f8hcoBLO5ySRNdk-i0lg-15" target="f8hcoBLO5ySRNdk-i0lg-17" edge="1">
          <mxGeometry width="50" height="50" relative="1" as="geometry">
            <mxPoint x="173.75" y="519" as="sourcePoint" />
            <mxPoint x="198.75" y="554" as="targetPoint" />
          </mxGeometry>
        </mxCell>
        <mxCell id="f8hcoBLO5ySRNdk-i0lg-28" value="" style="endArrow=classic;html=1;rounded=0;exitX=0.576;exitY=0.931;exitDx=0;exitDy=0;exitPerimeter=0;entryX=0.425;entryY=0.018;entryDx=0;entryDy=0;entryPerimeter=0;" parent="1" source="f8hcoBLO5ySRNdk-i0lg-17" target="f8hcoBLO5ySRNdk-i0lg-21" edge="1">
          <mxGeometry width="50" height="50" relative="1" as="geometry">
            <mxPoint x="160" y="594" as="sourcePoint" />
            <mxPoint x="200" y="614" as="targetPoint" />
          </mxGeometry>
        </mxCell>
        <mxCell id="f8hcoBLO5ySRNdk-i0lg-29" value="" style="endArrow=classic;html=1;rounded=0;entryX=0.434;entryY=0.089;entryDx=0;entryDy=0;entryPerimeter=0;exitX=0.5;exitY=1;exitDx=0;exitDy=0;" parent="1" source="f8hcoBLO5ySRNdk-i0lg-19" target="f8hcoBLO5ySRNdk-i0lg-21" edge="1">
          <mxGeometry width="50" height="50" relative="1" as="geometry">
            <mxPoint x="200" y="594" as="sourcePoint" />
            <mxPoint x="240" y="614" as="targetPoint" />
          </mxGeometry>
        </mxCell>
        <mxCell id="f8hcoBLO5ySRNdk-i0lg-33" value="" style="edgeStyle=orthogonalEdgeStyle;rounded=0;orthogonalLoop=1;jettySize=auto;html=1;" parent="1" source="f8hcoBLO5ySRNdk-i0lg-30" target="f8hcoBLO5ySRNdk-i0lg-32" edge="1">
          <mxGeometry relative="1" as="geometry" />
        </mxCell>
        <mxCell id="f8hcoBLO5ySRNdk-i0lg-30" value="process file" style="whiteSpace=wrap;html=1;rounded=0;" parent="1" vertex="1">
          <mxGeometry x="81.25" y="714" width="72.5" height="20" as="geometry" />
        </mxCell>
        <mxCell id="f8hcoBLO5ySRNdk-i0lg-35" value="" style="edgeStyle=orthogonalEdgeStyle;rounded=0;orthogonalLoop=1;jettySize=auto;html=1;" parent="1" source="f8hcoBLO5ySRNdk-i0lg-32" target="f8hcoBLO5ySRNdk-i0lg-34" edge="1">
          <mxGeometry relative="1" as="geometry" />
        </mxCell>
        <mxCell id="f8hcoBLO5ySRNdk-i0lg-32" value="&lt;font&gt;Apply Caesar cipher&amp;nbsp;&lt;/font&gt;" style="whiteSpace=wrap;html=1;rounded=0;" parent="1" vertex="1">
          <mxGeometry x="66.88" y="754" width="101.25" height="30" as="geometry" />
        </mxCell>
        <mxCell id="f8hcoBLO5ySRNdk-i0lg-37" value="" style="edgeStyle=orthogonalEdgeStyle;rounded=0;orthogonalLoop=1;jettySize=auto;html=1;" parent="1" source="f8hcoBLO5ySRNdk-i0lg-34" target="f8hcoBLO5ySRNdk-i0lg-36" edge="1">
          <mxGeometry relative="1" as="geometry" />
        </mxCell>
        <mxCell id="f8hcoBLO5ySRNdk-i0lg-34" value="Encrypt? +shift: -shift" style="whiteSpace=wrap;html=1;rounded=0;" parent="1" vertex="1">
          <mxGeometry x="70" y="794" width="100" height="30" as="geometry" />
        </mxCell>
        <mxCell id="f8hcoBLO5ySRNdk-i0lg-39" value="" style="edgeStyle=orthogonalEdgeStyle;rounded=0;orthogonalLoop=1;jettySize=auto;html=1;" parent="1" source="f8hcoBLO5ySRNdk-i0lg-36" target="f8hcoBLO5ySRNdk-i0lg-38" edge="1">
          <mxGeometry relative="1" as="geometry" />
        </mxCell>
        <mxCell id="f8hcoBLO5ySRNdk-i0lg-36" value="Generate output path" style="whiteSpace=wrap;html=1;rounded=0;" parent="1" vertex="1">
          <mxGeometry x="65" y="844" width="115" height="30" as="geometry" />
        </mxCell>
        <mxCell id="f8hcoBLO5ySRNdk-i0lg-38" value="Return success status" style="whiteSpace=wrap;html=1;rounded=0;" parent="1" vertex="1">
          <mxGeometry x="60" y="904" width="125" height="25" as="geometry" />
        </mxCell>
        <mxCell id="33GwBaCSwXvwDN534ODD-3" value="" style="edgeStyle=orthogonalEdgeStyle;rounded=0;orthogonalLoop=1;jettySize=auto;html=1;" edge="1" parent="1" source="33GwBaCSwXvwDN534ODD-6" target="33GwBaCSwXvwDN534ODD-2">
          <mxGeometry relative="1" as="geometry">
            <mxPoint x="340" y="670" as="sourcePoint" />
          </mxGeometry>
        </mxCell>
        <mxCell id="33GwBaCSwXvwDN534ODD-5" value="" style="edgeStyle=orthogonalEdgeStyle;rounded=0;orthogonalLoop=1;jettySize=auto;html=1;" edge="1" parent="1" source="33GwBaCSwXvwDN534ODD-6" target="33GwBaCSwXvwDN534ODD-4">
          <mxGeometry relative="1" as="geometry">
            <mxPoint x="447.5" y="666.25" as="sourcePoint" />
          </mxGeometry>
        </mxCell>
        <mxCell id="f8hcoBLO5ySRNdk-i0lg-42" value="" style="endArrow=classic;html=1;rounded=0;exitX=1;exitY=0.5;exitDx=0;exitDy=0;" parent="1" target="33GwBaCSwXvwDN534ODD-6" edge="1" source="f8hcoBLO5ySRNdk-i0lg-30">
          <mxGeometry width="50" height="50" relative="1" as="geometry">
            <mxPoint x="167.5" y="677.75" as="sourcePoint" />
            <mxPoint x="287.06999999999994" y="687.3499999999999" as="targetPoint" />
          </mxGeometry>
        </mxCell>
        <mxCell id="33GwBaCSwXvwDN534ODD-11" value="" style="edgeStyle=orthogonalEdgeStyle;rounded=0;orthogonalLoop=1;jettySize=auto;html=1;" edge="1" parent="1" source="33GwBaCSwXvwDN534ODD-2" target="33GwBaCSwXvwDN534ODD-10">
          <mxGeometry relative="1" as="geometry" />
        </mxCell>
        <mxCell id="33GwBaCSwXvwDN534ODD-2" value="log action to history" style="rounded=0;whiteSpace=wrap;html=1;" vertex="1" parent="1">
          <mxGeometry x="250" y="696.25" width="120" height="40" as="geometry" />
        </mxCell>
        <mxCell id="33GwBaCSwXvwDN534ODD-9" value="" style="edgeStyle=orthogonalEdgeStyle;rounded=0;orthogonalLoop=1;jettySize=auto;html=1;" edge="1" parent="1" source="33GwBaCSwXvwDN534ODD-4" target="33GwBaCSwXvwDN534ODD-8">
          <mxGeometry relative="1" as="geometry" />
        </mxCell>
        <mxCell id="33GwBaCSwXvwDN534ODD-4" value="show error message" style="rounded=0;whiteSpace=wrap;html=1;" vertex="1" parent="1">
          <mxGeometry x="402.5" y="620" width="80" height="40" as="geometry" />
        </mxCell>
        <mxCell id="33GwBaCSwXvwDN534ODD-6" value="success?" style="rhombus;whiteSpace=wrap;html=1;" vertex="1" parent="1">
          <mxGeometry x="280" y="610" width="60" height="60" as="geometry" />
        </mxCell>
        <mxCell id="33GwBaCSwXvwDN534ODD-8" value="play error sound" style="rounded=0;whiteSpace=wrap;html=1;" vertex="1" parent="1">
          <mxGeometry x="402.5" y="711.25" width="80" height="40" as="geometry" />
        </mxCell>
        <mxCell id="33GwBaCSwXvwDN534ODD-13" value="" style="edgeStyle=orthogonalEdgeStyle;rounded=0;orthogonalLoop=1;jettySize=auto;html=1;" edge="1" parent="1" source="33GwBaCSwXvwDN534ODD-10" target="33GwBaCSwXvwDN534ODD-12">
          <mxGeometry relative="1" as="geometry" />
        </mxCell>
        <mxCell id="33GwBaCSwXvwDN534ODD-10" value="show success message" style="rounded=0;whiteSpace=wrap;html=1;" vertex="1" parent="1">
          <mxGeometry x="250" y="755" width="120" height="40" as="geometry" />
        </mxCell>
        <mxCell id="33GwBaCSwXvwDN534ODD-12" value="play success sound" style="rounded=0;whiteSpace=wrap;html=1;" vertex="1" parent="1">
          <mxGeometry x="250" y="812.5" width="120" height="40" as="geometry" />
        </mxCell>
        <mxCell id="33GwBaCSwXvwDN534ODD-15" value="yes" style="text;html=1;align=center;verticalAlign=middle;whiteSpace=wrap;rounded=0;" vertex="1" parent="1">
          <mxGeometry x="185" y="394" width="30" height="10" as="geometry" />
        </mxCell>
        <mxCell id="33GwBaCSwXvwDN534ODD-35" value="no" style="text;html=1;align=center;verticalAlign=middle;whiteSpace=wrap;rounded=0;" vertex="1" parent="1">
          <mxGeometry x="123.75" y="303.25" width="30" height="10" as="geometry" />
        </mxCell>
        <mxCell id="33GwBaCSwXvwDN534ODD-42" value="draw file selection screen" style="rounded=0;whiteSpace=wrap;html=1;" vertex="1" parent="1">
          <mxGeometry x="300" y="304" width="70" height="50" as="geometry" />
        </mxCell>
        <mxCell id="33GwBaCSwXvwDN534ODD-44" value="draw history secion" style="whiteSpace=wrap;html=1;" vertex="1" parent="1">
          <mxGeometry x="517.5" y="384" width="115" height="20" as="geometry" />
        </mxCell>
        <mxCell id="33GwBaCSwXvwDN534ODD-48" value="exit" style="text;html=1;align=center;verticalAlign=middle;whiteSpace=wrap;rounded=0;" vertex="1" parent="1">
          <mxGeometry x="425" y="304" width="30" height="10" as="geometry" />
        </mxCell>
        <mxCell id="33GwBaCSwXvwDN534ODD-54" value="" style="edgeStyle=orthogonalEdgeStyle;rounded=0;orthogonalLoop=1;jettySize=auto;html=1;" edge="1" parent="1" source="33GwBaCSwXvwDN534ODD-49" target="33GwBaCSwXvwDN534ODD-53">
          <mxGeometry relative="1" as="geometry" />
        </mxCell>
        <mxCell id="33GwBaCSwXvwDN534ODD-49" value="open history.txt" style="whiteSpace=wrap;html=1;" vertex="1" parent="1">
          <mxGeometry x="700" y="309" width="90" height="40" as="geometry" />
        </mxCell>
        <mxCell id="33GwBaCSwXvwDN534ODD-53" value="file exists?" style="rhombus;whiteSpace=wrap;html=1;" vertex="1" parent="1">
          <mxGeometry x="610" y="424" width="80" height="80" as="geometry" />
        </mxCell>
        <mxCell id="33GwBaCSwXvwDN534ODD-63" value="" style="edgeStyle=orthogonalEdgeStyle;rounded=0;orthogonalLoop=1;jettySize=auto;html=1;" edge="1" parent="1" source="33GwBaCSwXvwDN534ODD-55" target="33GwBaCSwXvwDN534ODD-62">
          <mxGeometry relative="1" as="geometry" />
        </mxCell>
        <mxCell id="33GwBaCSwXvwDN534ODD-55" value="display history entries" style="whiteSpace=wrap;html=1;" vertex="1" parent="1">
          <mxGeometry x="530" y="524" width="90" height="30" as="geometry" />
        </mxCell>
        <mxCell id="33GwBaCSwXvwDN534ODD-57" value="" style="endArrow=classic;html=1;rounded=0;entryX=0.416;entryY=0.001;entryDx=0;entryDy=0;entryPerimeter=0;exitX=0;exitY=1;exitDx=0;exitDy=0;" edge="1" parent="1" source="33GwBaCSwXvwDN534ODD-53" target="33GwBaCSwXvwDN534ODD-55">
          <mxGeometry width="50" height="50" relative="1" as="geometry">
            <mxPoint x="550" y="504" as="sourcePoint" />
            <mxPoint x="610" y="464" as="targetPoint" />
          </mxGeometry>
        </mxCell>
        <mxCell id="33GwBaCSwXvwDN534ODD-58" value="yes" style="text;html=1;align=center;verticalAlign=middle;whiteSpace=wrap;rounded=0;" vertex="1" parent="1">
          <mxGeometry x="570" y="484" width="30" height="10" as="geometry" />
        </mxCell>
        <mxCell id="33GwBaCSwXvwDN534ODD-59" value="" style="endArrow=classic;html=1;rounded=0;exitX=1;exitY=1;exitDx=0;exitDy=0;" edge="1" parent="1" source="33GwBaCSwXvwDN534ODD-53" target="33GwBaCSwXvwDN534ODD-60">
          <mxGeometry width="50" height="50" relative="1" as="geometry">
            <mxPoint x="753" y="524" as="sourcePoint" />
            <mxPoint x="720" y="524" as="targetPoint" />
          </mxGeometry>
        </mxCell>
        <mxCell id="33GwBaCSwXvwDN534ODD-64" value="" style="edgeStyle=orthogonalEdgeStyle;rounded=0;orthogonalLoop=1;jettySize=auto;html=1;" edge="1" parent="1" source="33GwBaCSwXvwDN534ODD-60" target="33GwBaCSwXvwDN534ODD-62">
          <mxGeometry relative="1" as="geometry" />
        </mxCell>
        <mxCell id="33GwBaCSwXvwDN534ODD-60" value="show no history message" style="whiteSpace=wrap;html=1;" vertex="1" parent="1">
          <mxGeometry x="670" y="524" width="90" height="30" as="geometry" />
        </mxCell>
        <mxCell id="33GwBaCSwXvwDN534ODD-61" value="no" style="text;html=1;align=center;verticalAlign=middle;whiteSpace=wrap;rounded=0;" vertex="1" parent="1">
          <mxGeometry x="690" y="484" width="30" height="10" as="geometry" />
        </mxCell>
        <mxCell id="33GwBaCSwXvwDN534ODD-62" value="wait for key press" style="whiteSpace=wrap;html=1;" vertex="1" parent="1">
          <mxGeometry x="590" y="624" width="90" height="30" as="geometry" />
        </mxCell>
        <mxCell id="33GwBaCSwXvwDN534ODD-66" value="" style="edgeStyle=orthogonalEdgeStyle;rounded=0;orthogonalLoop=1;jettySize=auto;html=1;" edge="1" parent="1" source="Kg_sOJWb3HzbP19iZcao-1" target="Kg_sOJWb3HzbP19iZcao-2">
          <mxGeometry relative="1" as="geometry">
            <mxPoint x="455" y="104" as="sourcePoint" />
            <mxPoint x="455" y="219" as="targetPoint" />
          </mxGeometry>
        </mxCell>
        <mxCell id="Kg_sOJWb3HzbP19iZcao-2" value="Display Main Menu" style="whiteSpace=wrap;html=1;fontSize=12;" parent="1" vertex="1">
          <mxGeometry x="405" y="144" width="100" height="30" as="geometry" />
        </mxCell>
        <mxCell id="33GwBaCSwXvwDN534ODD-67" value="yes" style="text;html=1;align=center;verticalAlign=middle;whiteSpace=wrap;rounded=0;" vertex="1" parent="1">
          <mxGeometry x="280" y="670" width="30" height="10" as="geometry" />
        </mxCell>
        <mxCell id="33GwBaCSwXvwDN534ODD-68" value="no" style="text;html=1;align=center;verticalAlign=middle;whiteSpace=wrap;rounded=0;" vertex="1" parent="1">
          <mxGeometry x="345" y="626.25" width="30" height="10" as="geometry" />
        </mxCell>
        <mxCell id="33GwBaCSwXvwDN534ODD-69" value="" style="endArrow=classic;html=1;rounded=0;exitX=1;exitY=0.5;exitDx=0;exitDy=0;entryX=1;entryY=0.25;entryDx=0;entryDy=0;" edge="1" parent="1" source="33GwBaCSwXvwDN534ODD-62" target="Kg_sOJWb3HzbP19iZcao-2">
          <mxGeometry width="50" height="50" relative="1" as="geometry">
            <mxPoint x="710" y="660" as="sourcePoint" />
            <mxPoint x="760" y="610" as="targetPoint" />
            <Array as="points">
              <mxPoint x="800" y="620" />
              <mxPoint x="800" y="160" />
            </Array>
          </mxGeometry>
        </mxCell>
        <mxCell id="33GwBaCSwXvwDN534ODD-70" value="" style="endArrow=classic;html=1;rounded=0;exitX=1;exitY=0.5;exitDx=0;exitDy=0;entryX=0.5;entryY=1;entryDx=0;entryDy=0;" edge="1" parent="1" source="f8hcoBLO5ySRNdk-i0lg-38" target="33GwBaCSwXvwDN534ODD-62">
          <mxGeometry width="50" height="50" relative="1" as="geometry">
            <mxPoint x="220" y="980" as="sourcePoint" />
            <mxPoint x="270" y="930" as="targetPoint" />
            <Array as="points">
              <mxPoint x="520" y="880" />
            </Array>
          </mxGeometry>
        </mxCell>
        <mxCell id="33GwBaCSwXvwDN534ODD-71" value="" style="endArrow=classic;html=1;rounded=0;exitX=0;exitY=0.5;exitDx=0;exitDy=0;entryX=0;entryY=0.5;entryDx=0;entryDy=0;" edge="1" parent="1" source="f8hcoBLO5ySRNdk-i0lg-8" target="Kg_sOJWb3HzbP19iZcao-2">
          <mxGeometry width="50" height="50" relative="1" as="geometry">
            <mxPoint x="120" y="350" as="sourcePoint" />
            <mxPoint x="170" y="300" as="targetPoint" />
            <Array as="points">
              <mxPoint x="150" y="344" />
              <mxPoint x="150" y="250" />
              <mxPoint x="150" y="160" />
            </Array>
          </mxGeometry>
        </mxCell>
      </root>
    </mxGraphModel>
  </diagram>
</mxfile>
